<?xml version="1.0" encoding="UTF-8"?>
<svg version="1.1" xmlns="http://www.w3.org/2000/svg" width="500" height="150">
<path d="M0 0 C1.1859375 0.00257812 2.371875 0.00515625 3.59375 0.0078125 C4.7796875 0.00523438 5.965625 0.00265625 7.1875 0 C10.09375 0.1328125 10.09375 0.1328125 11.09375 1.1328125 C11.33103814 7.65823623 11.33103814 7.65823623 10.09375 10.1328125 C11.08375 9.8028125 12.07375 9.4728125 13.09375 9.1328125 C20.21336722 8.55864982 20.21336722 8.55864982 23.96875 11.0078125 C25.34375 12.3828125 26.71875 13.7578125 28.09375 15.1328125 C28.54363281 14.6996875 28.99351562 14.2665625 29.45703125 13.8203125 C34.36290978 9.5731391 37.97191742 8.31281997 44.4609375 8.65625 C48.36853624 9.36356016 50.87200516 10.84179395 54.09375 13.1328125 C54.49464844 12.48231934 54.89554688 11.83182617 55.30859375 11.16162109 C57.09375 9.1328125 57.09375 9.1328125 59.22265625 8.64697266 C60.42728516 8.65929932 60.42728516 8.65929932 61.65625 8.671875 C62.53539062 8.67574219 63.41453125 8.67960937 64.3203125 8.68359375 C65.23554688 8.70808594 66.15078125 8.73257813 67.09375 8.7578125 C68.00898438 8.75910156 68.92421875 8.76039062 69.8671875 8.76171875 C76.67180488 8.85151575 76.67180488 8.85151575 80.09375 11.1328125 C82.37772032 10.78675639 84.02784037 10.16576731 86.09375 9.1328125 C90.59433676 8.87806231 94.12814499 8.88206371 98.09375 11.1328125 C100.40625 13.7578125 100.40625 13.7578125 102.09375 16.1328125 C102.856875 15.3490625 103.62 14.5653125 104.40625 13.7578125 C107.82406661 10.41948 109.78618342 8.85080531 114.53125 8.8828125 C115.29308594 8.87765625 116.05492187 8.8725 116.83984375 8.8671875 C119.30818018 9.1580833 120.951436 9.90305594 123.09375 11.1328125 C124.08375 10.4728125 125.07375 9.8128125 126.09375 9.1328125 C129.48333642 8.60318962 132.70591915 8.57771184 136.09375 9.1328125 C138.09375 11.2578125 138.09375 11.2578125 139.09375 14.1328125 C139.6815625 15.7725 139.6815625 15.7725 140.28125 17.4453125 C140.6834375 18.775625 140.6834375 18.775625 141.09375 20.1328125 C143.31348146 16.75496028 144.3285441 14.06815711 145.09375 10.1328125 C148.23016748 8.56460376 151.66554483 8.75118211 155.09375 9.1328125 C155.74988281 9.48601562 156.40601563 9.83921875 157.08203125 10.203125 C159.65411681 11.39177813 160.73062286 10.99847589 163.40625 10.1953125 C167.64370667 9.13072979 170.7963971 8.97583287 175.09375 10.1328125 C178.03125 12.1953125 178.03125 12.1953125 180.09375 14.1328125 C180.75375 12.4828125 181.41375 10.8328125 182.09375 9.1328125 C183.33125 9.1121875 184.56875 9.0915625 185.84375 9.0703125 C186.53984375 9.05871094 187.2359375 9.04710938 187.953125 9.03515625 C190.09375 9.1328125 190.09375 9.1328125 194.09375 10.1328125 C194.42375 15.7428125 194.75375 21.3528125 195.09375 27.1328125 C195.75375 27.4628125 196.41375 27.7928125 197.09375 28.1328125 C198.2099156 24.41851352 198.4061695 20.74119742 198.65625 16.8828125 C198.74003906 15.61953125 198.82382812 14.35625 198.91015625 13.0546875 C198.97074219 12.09046875 199.03132812 11.12625 199.09375 10.1328125 C200.71789378 9.93803511 202.34311423 9.75221792 203.96875 9.5703125 C204.87367188 9.46589844 205.77859375 9.36148438 206.7109375 9.25390625 C209.09375 9.1328125 209.09375 9.1328125 211.09375 10.1328125 C211.71875 12.1953125 211.71875 12.1953125 212.09375 14.1328125 C212.66480469 13.47796875 213.23585938 12.823125 213.82421875 12.1484375 C218.8347513 9.05950704 223.64794048 9.70780835 229.40625 9.8828125 C231.08944336 9.90988281 231.08944336 9.90988281 232.80664062 9.9375 C235.56988447 9.98453394 238.33137698 10.05024933 241.09375 10.1328125 C241.42375 12.1128125 241.75375 14.0928125 242.09375 16.1328125 C242.856875 15.3490625 243.62 14.5653125 244.40625 13.7578125 C249.05995278 9.21233536 249.05995278 9.21233536 253.34375 8.8828125 C259.7924689 9.31272709 264.33905888 10.65780909 269.09375 15.1328125 C271.42546722 19.79624693 270.62228183 26.07065208 270.09375 31.1328125 C267.84375 34.3203125 267.84375 34.3203125 265.09375 36.1328125 C264.48789062 36.65617187 263.88203125 37.17953125 263.2578125 37.71875 C259.26496187 40.3277968 254.68132469 39.75024296 250.09375 39.1328125 C246.82580426 37.75988855 244.59243521 35.63149771 242.09375 33.1328125 C241.84625 34.3703125 241.59875 35.6078125 241.34375 36.8828125 C240.04536882 41.99518841 237.81633496 43.98442253 233.46875 46.8828125 C226.98885676 49.28277296 221.267929 48.92032321 214.96875 46.1328125 C213.66774406 45.48456041 212.37217999 44.82452341 211.09375 44.1328125 C211.60087033 40.41393011 212.20983215 37.39827011 214.09375 34.1328125 C213.43375 34.1328125 212.77375 34.1328125 212.09375 34.1328125 C211.949375 34.7721875 211.805 35.4115625 211.65625 36.0703125 C211.09375 38.1328125 211.09375 38.1328125 210.09375 39.1328125 C206.85224221 39.4121069 203.59585698 39.3646443 200.34375 39.3828125 C199.43625 39.4034375 198.52875 39.4240625 197.59375 39.4453125 C192.63085568 39.47433527 189.04751755 39.48295142 185.09375 36.1328125 C183.28125 33.9453125 183.28125 33.9453125 182.09375 32.1328125 C181.64386719 32.638125 181.19398438 33.1434375 180.73046875 33.6640625 C176.8783421 37.55478761 174.12493069 39.65806486 168.53125 39.8203125 C162.64720466 39.40525536 158.72499289 37.87787506 154.55859375 33.53125 C153.34922931 32.10965725 152.21359632 30.62594093 151.09375 29.1328125 C150.86300781 29.94105469 150.63226563 30.74929687 150.39453125 31.58203125 C148.14957455 38.93803563 146.53700215 43.022536 140.21875 47.4453125 C136.12814669 48.76874298 132.33194678 48.45582036 128.21875 47.3828125 C126.09375 46.1328125 126.09375 46.1328125 125.09375 44.3828125 C125.09375 41.11580191 126.50474948 38.92945342 128.09375 36.1328125 C131.06375 36.6278125 131.06375 36.6278125 134.09375 37.1328125 C132.11375 32.6778125 132.11375 32.6778125 130.09375 28.1328125 C129.76375 29.4528125 129.43375 30.7728125 129.09375 32.1328125 C128.15010879 34.72782582 127.21546029 36.02288062 125.15625 37.8828125 C119.98002863 39.99555591 114.13374861 40.3126721 108.859375 38.265625 C106.76943755 37.08247859 104.80165669 35.84071919 103.09375 34.1328125 C102.43375 35.7828125 101.77375 37.4328125 101.09375 39.1328125 C99.28132948 39.15968529 97.46879767 39.17914965 95.65625 39.1953125 C94.64691406 39.20691406 93.63757813 39.21851563 92.59765625 39.23046875 C90.09375 39.1328125 90.09375 39.1328125 89.09375 38.1328125 C88.93792697 36.79266029 88.84330858 35.44522347 88.77734375 34.09765625 C88.73544922 33.28876953 88.69355469 32.47988281 88.65039062 31.64648438 C88.61107422 30.79634766 88.57175781 29.94621094 88.53125 29.0703125 C88.48806641 28.21630859 88.44488281 27.36230469 88.40039062 26.48242188 C88.29398298 24.36609213 88.19333269 22.24947437 88.09375 20.1328125 C85.36745127 22.48176885 85.11538251 22.86889592 84.80078125 26.70703125 C84.82065662 28.07843163 84.85633889 29.44967655 84.90625 30.8203125 C84.91978516 31.52220703 84.93332031 32.22410156 84.94726562 32.94726562 C84.98254818 34.67611079 85.03635417 36.40456015 85.09375 38.1328125 C82.7140888 39.3226431 81.17889265 39.26631216 78.53125 39.2578125 C77.32275391 39.26167969 77.32275391 39.26167969 76.08984375 39.265625 C74.09375 39.1328125 74.09375 39.1328125 73.09375 38.1328125 C72.88264481 35.64939449 72.71780205 33.18324537 72.59375 30.6953125 C72.51667674 25.76366819 72.51667674 25.76366819 71.09375 21.1328125 C70.43375 21.1328125 69.77375 21.1328125 69.09375 21.1328125 C67.507881 24.3045505 67.71508555 27.76795072 67.53125 31.2578125 C67.46647461 32.38896484 67.46647461 32.38896484 67.40039062 33.54296875 C67.2942668 35.40603138 67.19349999 37.26939774 67.09375 39.1328125 C63.79375 39.1328125 60.49375 39.1328125 57.09375 39.1328125 C56.43375 37.4828125 55.77375 35.8328125 55.09375 34.1328125 C54.330625 34.7721875 53.5675 35.4115625 52.78125 36.0703125 C47.88937663 39.8245409 43.02563991 39.53897694 37.09375 39.1328125 C33.96875 38.1328125 33.96875 38.1328125 32.09375 37.1328125 C32.09375 36.4728125 32.09375 35.8128125 32.09375 35.1328125 C30.77375 34.4728125 29.45375 33.8128125 28.09375 33.1328125 C27.43375 35.1128125 26.77375 37.0928125 26.09375 39.1328125 C24.44800434 39.15969401 22.80213587 39.17915373 21.15625 39.1953125 C20.23972656 39.20691406 19.32320312 39.21851563 18.37890625 39.23046875 C16.09375 39.1328125 16.09375 39.1328125 15.09375 38.1328125 C14.93792697 36.79266029 14.84330858 35.44522347 14.77734375 34.09765625 C14.73544922 33.28876953 14.69355469 32.47988281 14.65039062 31.64648438 C14.61107422 30.79634766 14.57175781 29.94621094 14.53125 29.0703125 C14.48806641 28.21630859 14.44488281 27.36230469 14.40039062 26.48242188 C14.29398298 24.36609213 14.19333269 22.24947437 14.09375 20.1328125 C13.10375 20.7928125 12.11375 21.4528125 11.09375 22.1328125 C10.73583017 24.88175412 10.53580233 27.43898269 10.46875 30.1953125 C10.19793532 38.02862718 10.19793532 38.02862718 9.09375 39.1328125 C7.45144636 39.2573611 5.80322724 39.30849774 4.15625 39.3203125 C3.26035156 39.33449219 2.36445313 39.34867188 1.44140625 39.36328125 C-0.90625 39.1328125 -0.90625 39.1328125 -2.90625 37.1328125 C-3.16407721 34.42459252 -3.3039701 31.81137197 -3.35546875 29.09765625 C-3.37720657 28.3038002 -3.3989444 27.50994415 -3.42134094 26.69203186 C-3.46527283 25.01347085 -3.5044693 23.33478025 -3.53930664 21.65600586 C-3.59361141 19.0768945 -3.6637627 16.49857746 -3.73632812 13.91992188 C-3.77697812 12.29168978 -3.81672262 10.66343477 -3.85546875 9.03515625 C-3.87622971 8.25913559 -3.89699066 7.48311493 -3.91838074 6.68357849 C-3.95371263 4.83365612 -3.93545888 2.98284168 -3.90625 1.1328125 C-2.90625 0.1328125 -2.90625 0.1328125 0 0 Z M115.09375 18.1328125 C114.10375 19.6178125 114.10375 19.6178125 113.09375 21.1328125 C114.41375 21.1328125 115.73375 21.1328125 117.09375 21.1328125 C116.76375 20.1428125 116.43375 19.1528125 116.09375 18.1328125 C115.76375 18.1328125 115.43375 18.1328125 115.09375 18.1328125 Z M167.09375 19.1328125 C164.74401182 21.03036394 164.74401182 21.03036394 164.96875 24.2578125 C165.01 25.2065625 165.05125 26.1553125 165.09375 27.1328125 C167.07375 28.1228125 167.07375 28.1228125 169.09375 29.1328125 C170.48283639 27.96171066 170.48283639 27.96171066 170.34375 24.6953125 C170.26125 23.5196875 170.17875 22.3440625 170.09375 21.1328125 C169.10375 20.4728125 168.11375 19.8128125 167.09375 19.1328125 Z M224.09375 19.1328125 C221.78703085 21.84830404 221.78703085 21.84830404 222.46875 24.3203125 C222.675 24.9184375 222.88125 25.5165625 223.09375 26.1328125 C225.07375 26.6278125 225.07375 26.6278125 227.09375 27.1328125 C228.31065533 25.36751655 228.31065533 25.36751655 229.09375 23.1328125 C228.31065533 20.89810845 228.31065533 20.89810845 227.09375 19.1328125 C226.10375 19.1328125 225.11375 19.1328125 224.09375 19.1328125 Z M254.09375 19.1328125 C251.72682034 21.98107848 251.72682034 21.98107848 252.46875 25.3203125 C252.675 26.2484375 252.88125 27.1765625 253.09375 28.1328125 C254.41375 28.1328125 255.73375 28.1328125 257.09375 28.1328125 C257.42375 27.8028125 257.75375 27.4728125 258.09375 27.1328125 C257.80644945 24.79336514 257.47438221 22.4588982 257.09375 20.1328125 C256.10375 19.8028125 255.11375 19.4728125 254.09375 19.1328125 Z M40.09375 20.1328125 C39.43375 20.7928125 38.77375 21.4528125 38.09375 22.1328125 C38.41573966 25.23208069 38.41573966 25.23208069 39.09375 28.1328125 C40.98554203 28.8142948 40.98554203 28.8142948 43.09375 29.1328125 C45.3429408 27.30578023 45.3429408 27.30578023 45.34375 24.6328125 C45.3429408 21.95984477 45.3429408 21.95984477 43.09375 20.1328125 C42.10375 20.1328125 41.11375 20.1328125 40.09375 20.1328125 Z M55.09375 31.1328125 C56.09375 33.1328125 56.09375 33.1328125 56.09375 33.1328125 Z M222.09375 37.1328125 C226.09375 38.1328125 226.09375 38.1328125 226.09375 38.1328125 Z " fill="#BDB2D1" transform="translate(151.90625,59.8671875)"/>
<path d="M0 0 C1.1859375 0.00257812 2.371875 0.00515625 3.59375 0.0078125 C4.7796875 0.00523438 5.965625 0.00265625 7.1875 0 C10.09375 0.1328125 10.09375 0.1328125 11.09375 1.1328125 C11.33103814 7.65823623 11.33103814 7.65823623 10.09375 10.1328125 C11.08375 9.8028125 12.07375 9.4728125 13.09375 9.1328125 C20.21336722 8.55864982 20.21336722 8.55864982 23.96875 11.0078125 C25.34375 12.3828125 26.71875 13.7578125 28.09375 15.1328125 C28.54363281 14.6996875 28.99351562 14.2665625 29.45703125 13.8203125 C34.36290978 9.5731391 37.97191742 8.31281997 44.4609375 8.65625 C48.36853624 9.36356016 50.87200516 10.84179395 54.09375 13.1328125 C54.49464844 12.48231934 54.89554688 11.83182617 55.30859375 11.16162109 C57.09375 9.1328125 57.09375 9.1328125 59.22265625 8.64697266 C60.42728516 8.65929932 60.42728516 8.65929932 61.65625 8.671875 C62.53539062 8.67574219 63.41453125 8.67960937 64.3203125 8.68359375 C65.23554688 8.70808594 66.15078125 8.73257813 67.09375 8.7578125 C68.00898438 8.75910156 68.92421875 8.76039062 69.8671875 8.76171875 C76.67180488 8.85151575 76.67180488 8.85151575 80.09375 11.1328125 C82.37772032 10.78675639 84.02784037 10.16576731 86.09375 9.1328125 C90.59433676 8.87806231 94.12814499 8.88206371 98.09375 11.1328125 C100.40625 13.7578125 100.40625 13.7578125 102.09375 16.1328125 C102.856875 15.3490625 103.62 14.5653125 104.40625 13.7578125 C107.82406661 10.41948 109.78618342 8.85080531 114.53125 8.8828125 C115.29308594 8.87765625 116.05492187 8.8725 116.83984375 8.8671875 C119.37904816 9.16643516 120.93916883 9.764608 123.09375 11.1328125 C124.49087274 13.08878434 125.83154907 15.08717651 127.09375 17.1328125 C127.42375 17.4628125 127.75375 17.7928125 128.09375 18.1328125 C128.09375 20.7728125 128.09375 23.4128125 128.09375 26.1328125 C122.15375 26.1328125 116.21375 26.1328125 110.09375 26.1328125 C110.09375 27.1228125 110.09375 28.1128125 110.09375 29.1328125 C111.51030793 29.160054 112.92702045 29.17931717 114.34375 29.1953125 C115.52710938 29.21271484 115.52710938 29.21271484 116.734375 29.23046875 C119.00066002 29.13666556 120.9226395 28.76522313 123.09375 28.1328125 C124.65625 29.9453125 124.65625 29.9453125 126.09375 32.1328125 C125.09375 35.1328125 125.09375 35.1328125 123.09375 36.3203125 C116.51831875 38.10115846 110.44700806 37.38292473 104.09375 35.1328125 C103.76375 34.8028125 103.43375 34.4728125 103.09375 34.1328125 C102.43375 35.7828125 101.77375 37.4328125 101.09375 39.1328125 C99.28132948 39.15968529 97.46879767 39.17914965 95.65625 39.1953125 C94.64691406 39.20691406 93.63757813 39.21851563 92.59765625 39.23046875 C90.09375 39.1328125 90.09375 39.1328125 89.09375 38.1328125 C88.93792697 36.79266029 88.84330858 35.44522347 88.77734375 34.09765625 C88.73544922 33.28876953 88.69355469 32.47988281 88.65039062 31.64648438 C88.61107422 30.79634766 88.57175781 29.94621094 88.53125 29.0703125 C88.48806641 28.21630859 88.44488281 27.36230469 88.40039062 26.48242188 C88.29398298 24.36609213 88.19333269 22.24947437 88.09375 20.1328125 C85.36745127 22.48176885 85.11538251 22.86889592 84.80078125 26.70703125 C84.82065662 28.07843163 84.85633889 29.44967655 84.90625 30.8203125 C84.91978516 31.52220703 84.93332031 32.22410156 84.94726562 32.94726562 C84.98254818 34.67611079 85.03635417 36.40456015 85.09375 38.1328125 C82.7140888 39.3226431 81.17889265 39.26631216 78.53125 39.2578125 C77.32275391 39.26167969 77.32275391 39.26167969 76.08984375 39.265625 C74.09375 39.1328125 74.09375 39.1328125 73.09375 38.1328125 C72.88264481 35.64939449 72.71780205 33.18324537 72.59375 30.6953125 C72.51667674 25.76366819 72.51667674 25.76366819 71.09375 21.1328125 C70.43375 21.1328125 69.77375 21.1328125 69.09375 21.1328125 C67.507881 24.3045505 67.71508555 27.76795072 67.53125 31.2578125 C67.46647461 32.38896484 67.46647461 32.38896484 67.40039062 33.54296875 C67.2942668 35.40603138 67.19349999 37.26939774 67.09375 39.1328125 C63.79375 39.1328125 60.49375 39.1328125 57.09375 39.1328125 C56.43375 37.4828125 55.77375 35.8328125 55.09375 34.1328125 C54.330625 34.7721875 53.5675 35.4115625 52.78125 36.0703125 C47.88937663 39.8245409 43.02563991 39.53897694 37.09375 39.1328125 C33.96875 38.1328125 33.96875 38.1328125 32.09375 37.1328125 C32.09375 36.4728125 32.09375 35.8128125 32.09375 35.1328125 C30.77375 34.4728125 29.45375 33.8128125 28.09375 33.1328125 C27.43375 35.1128125 26.77375 37.0928125 26.09375 39.1328125 C24.44800434 39.15969401 22.80213587 39.17915373 21.15625 39.1953125 C20.23972656 39.20691406 19.32320312 39.21851563 18.37890625 39.23046875 C16.09375 39.1328125 16.09375 39.1328125 15.09375 38.1328125 C14.93792697 36.79266029 14.84330858 35.44522347 14.77734375 34.09765625 C14.73544922 33.28876953 14.69355469 32.47988281 14.65039062 31.64648438 C14.61107422 30.79634766 14.57175781 29.94621094 14.53125 29.0703125 C14.48806641 28.21630859 14.44488281 27.36230469 14.40039062 26.48242188 C14.29398298 24.36609213 14.19333269 22.24947437 14.09375 20.1328125 C13.10375 20.7928125 12.11375 21.4528125 11.09375 22.1328125 C10.73583017 24.88175412 10.53580233 27.43898269 10.46875 30.1953125 C10.19793532 38.02862718 10.19793532 38.02862718 9.09375 39.1328125 C7.45144636 39.2573611 5.80322724 39.30849774 4.15625 39.3203125 C3.26035156 39.33449219 2.36445313 39.34867188 1.44140625 39.36328125 C-0.90625 39.1328125 -0.90625 39.1328125 -2.90625 37.1328125 C-3.16407721 34.42459252 -3.3039701 31.81137197 -3.35546875 29.09765625 C-3.37720657 28.3038002 -3.3989444 27.50994415 -3.42134094 26.69203186 C-3.46527283 25.01347085 -3.5044693 23.33478025 -3.53930664 21.65600586 C-3.59361141 19.0768945 -3.6637627 16.49857746 -3.73632812 13.91992188 C-3.77697812 12.29168978 -3.81672262 10.66343477 -3.85546875 9.03515625 C-3.87622971 8.25913559 -3.89699066 7.48311493 -3.91838074 6.68357849 C-3.95371263 4.83365612 -3.93545888 2.98284168 -3.90625 1.1328125 C-2.90625 0.1328125 -2.90625 0.1328125 0 0 Z M115.09375 18.1328125 C114.10375 19.6178125 114.10375 19.6178125 113.09375 21.1328125 C114.41375 21.1328125 115.73375 21.1328125 117.09375 21.1328125 C116.76375 20.1428125 116.43375 19.1528125 116.09375 18.1328125 C115.76375 18.1328125 115.43375 18.1328125 115.09375 18.1328125 Z M40.09375 20.1328125 C39.43375 20.7928125 38.77375 21.4528125 38.09375 22.1328125 C38.41573966 25.23208069 38.41573966 25.23208069 39.09375 28.1328125 C40.98554203 28.8142948 40.98554203 28.8142948 43.09375 29.1328125 C45.3429408 27.30578023 45.3429408 27.30578023 45.34375 24.6328125 C45.3429408 21.95984477 45.3429408 21.95984477 43.09375 20.1328125 C42.10375 20.1328125 41.11375 20.1328125 40.09375 20.1328125 Z M55.09375 31.1328125 C56.09375 33.1328125 56.09375 33.1328125 56.09375 33.1328125 Z " fill="#32ADE1" transform="translate(151.90625,59.8671875)"/>
<path d="M0 0 C7.02168349 1.7673086 12.21395237 7.08981736 17.4609375 11.87109375 C17.1103125 10.92234375 16.7596875 9.97359375 16.3984375 8.99609375 C15.4609375 5.87109375 15.4609375 5.87109375 16.4609375 3.87109375 C19.91107221 3.55744514 21.815852 3.42311771 24.7109375 5.43359375 C27.00595949 8.63023152 27.87473385 10.96306939 28.4609375 14.87109375 C27.83467389 17.73255835 26.92417597 20.32902692 25.4609375 22.87109375 C24.4709375 23.36609375 24.4709375 23.36609375 23.4609375 23.87109375 C23.48414063 24.71671875 23.50734375 25.56234375 23.53125 26.43359375 C23.76889566 41.37132113 23.76889566 41.37132113 20.03125 47.0390625 C16.00098038 49.91170148 11.92325798 49.55129934 7.0859375 49.62109375 C6.10165771 49.6478418 5.11737793 49.67458984 4.10327148 49.70214844 C2.13171726 49.75186098 0.15991735 49.79270465 -1.81201172 49.82421875 C-4.16200802 49.8646126 -6.50700633 49.93699655 -8.85546875 50.02734375 C-19.14843476 50.29382831 -25.13036372 48.03511395 -32.703125 40.9921875 C-34.5390625 38.87109375 -34.5390625 38.87109375 -35.7890625 35.18359375 C-35.45794769 30.79632248 -34.12662137 28.39515027 -30.9765625 25.37109375 C-29.37506183 23.91419967 -29.37506183 23.91419967 -28.7890625 21.62109375 C-25.94222184 15.35804431 -19.57955329 10.93823355 -14.43359375 6.546875 C-12.4602858 4.86983224 -12.4602858 4.86983224 -10.63671875 2.72265625 C-7.26240674 -0.25578675 -4.36799199 -0.09167391 0 0 Z " fill="#2CABE1" transform="translate(114.5390625,55.12890625)"/>
<path d="M0 0 C5.01951599 1.03852055 8.25741965 2.47757144 12 6 C14.33171722 10.66343443 13.52853183 16.93783958 13 22 C10.75 25.1875 10.75 25.1875 8 27 C7.39414062 27.52335937 6.78828125 28.04671875 6.1640625 28.5859375 C2.17121187 31.1949843 -2.41242531 30.61743046 -7 30 C-10.26794574 28.62707605 -12.50131479 26.49868521 -15 24 C-15.2475 25.2375 -15.495 26.475 -15.75 27.75 C-17.04838118 32.86237591 -19.27741504 34.85161003 -23.625 37.75 C-30.10489324 40.14996046 -35.825821 39.78751071 -42.125 37 C-43.42600594 36.35174791 -44.72157001 35.69171091 -46 35 C-45.24242424 29.44444444 -45.24242424 29.44444444 -43.875 26.9375 C-42.69631997 24.32756565 -43.25018421 22.69933686 -44 20 C-44.66 20 -45.32 20 -46 20 C-46.76567413 8.37876826 -46.76567413 8.37876826 -44.921875 5.05859375 C-43.5625 3.75 -43.5625 3.75 -41 2 C-40.67 1.67 -40.34 1.34 -40 1 C-38.21928754 0.91273777 -36.4351686 0.89300959 -34.65234375 0.90234375 C-33.57275391 0.90556641 -32.49316406 0.90878906 -31.38085938 0.91210938 C-29.67639648 0.92467773 -29.67639648 0.92467773 -27.9375 0.9375 C-26.22723633 0.94426758 -26.22723633 0.94426758 -24.48242188 0.95117188 C-21.65489649 0.96300253 -18.8274736 0.9794859 -16 1 C-15.67 2.98 -15.34 4.96 -15 7 C-14.236875 6.21625 -13.47375 5.4325 -12.6875 4.625 C-8.28891848 0.32871108 -6.08287654 -0.4055251 0 0 Z M-33 10 C-35.30671915 12.71549154 -35.30671915 12.71549154 -34.625 15.1875 C-34.41875 15.785625 -34.2125 16.38375 -34 17 C-32.02 17.495 -32.02 17.495 -30 18 C-28.78309467 16.23470405 -28.78309467 16.23470405 -28 14 C-28.78309467 11.76529595 -28.78309467 11.76529595 -30 10 C-30.99 10 -31.98 10 -33 10 Z M-3 10 C-5.36692966 12.84826598 -5.36692966 12.84826598 -4.625 16.1875 C-4.41875 17.115625 -4.2125 18.04375 -4 19 C-2.68 19 -1.36 19 0 19 C0.33 18.67 0.66 18.34 1 18 C0.71269945 15.66055264 0.38063221 13.3260857 0 11 C-0.99 10.67 -1.98 10.34 -3 10 Z M-35 28 C-31 29 -31 29 -31 29 Z " fill="#34ADE1" transform="translate(409,69)"/>
<path d="M0 0 C1.1859375 0.00257812 2.371875 0.00515625 3.59375 0.0078125 C4.7796875 0.00523438 5.965625 0.00265625 7.1875 0 C10.09375 0.1328125 10.09375 0.1328125 11.09375 1.1328125 C11.33103814 7.65823623 11.33103814 7.65823623 10.09375 10.1328125 C11.08375 9.8028125 12.07375 9.4728125 13.09375 9.1328125 C20.21336722 8.55864982 20.21336722 8.55864982 23.96875 11.0078125 C25.34375 12.3828125 26.71875 13.7578125 28.09375 15.1328125 C28.54363281 14.6996875 28.99351562 14.2665625 29.45703125 13.8203125 C34.36733157 9.56931102 37.97581621 8.3186791 44.46875 8.65234375 C48.32496415 9.35816866 50.84079171 10.98724427 54.09375 13.1328125 C54.75375 12.8028125 55.41375 12.4728125 56.09375 12.1328125 C56.2568307 15.15584545 56.37511405 18.16997956 56.46875 21.1953125 C56.51902344 22.04287109 56.56929687 22.89042969 56.62109375 23.76367188 C56.75616038 29.59404804 55.70767027 32.60113259 51.68603516 36.85327148 C47.58131775 40.15177255 42.06993369 39.47353845 37.09375 39.1328125 C33.96875 38.1328125 33.96875 38.1328125 32.09375 37.1328125 C32.09375 36.4728125 32.09375 35.8128125 32.09375 35.1328125 C30.77375 34.4728125 29.45375 33.8128125 28.09375 33.1328125 C27.43375 35.1128125 26.77375 37.0928125 26.09375 39.1328125 C24.44800434 39.15969401 22.80213587 39.17915373 21.15625 39.1953125 C20.23972656 39.20691406 19.32320312 39.21851563 18.37890625 39.23046875 C16.09375 39.1328125 16.09375 39.1328125 15.09375 38.1328125 C14.93792697 36.79266029 14.84330858 35.44522347 14.77734375 34.09765625 C14.73544922 33.28876953 14.69355469 32.47988281 14.65039062 31.64648438 C14.61107422 30.79634766 14.57175781 29.94621094 14.53125 29.0703125 C14.48806641 28.21630859 14.44488281 27.36230469 14.40039062 26.48242188 C14.29398298 24.36609213 14.19333269 22.24947437 14.09375 20.1328125 C13.10375 20.7928125 12.11375 21.4528125 11.09375 22.1328125 C10.73583017 24.88175412 10.53580233 27.43898269 10.46875 30.1953125 C10.19793532 38.02862718 10.19793532 38.02862718 9.09375 39.1328125 C7.45144636 39.2573611 5.80322724 39.30849774 4.15625 39.3203125 C3.26035156 39.33449219 2.36445313 39.34867188 1.44140625 39.36328125 C-0.90625 39.1328125 -0.90625 39.1328125 -2.90625 37.1328125 C-3.16407721 34.42459252 -3.3039701 31.81137197 -3.35546875 29.09765625 C-3.37720657 28.3038002 -3.3989444 27.50994415 -3.42134094 26.69203186 C-3.46527283 25.01347085 -3.5044693 23.33478025 -3.53930664 21.65600586 C-3.59361141 19.0768945 -3.6637627 16.49857746 -3.73632812 13.91992188 C-3.77697812 12.29168978 -3.81672262 10.66343477 -3.85546875 9.03515625 C-3.87622971 8.25913559 -3.89699066 7.48311493 -3.91838074 6.68357849 C-3.95371263 4.83365612 -3.93545888 2.98284168 -3.90625 1.1328125 C-2.90625 0.1328125 -2.90625 0.1328125 0 0 Z M40.09375 20.1328125 C39.43375 20.7928125 38.77375 21.4528125 38.09375 22.1328125 C38.41573966 25.23208069 38.41573966 25.23208069 39.09375 28.1328125 C40.98554203 28.8142948 40.98554203 28.8142948 43.09375 29.1328125 C45.3429408 27.30578023 45.3429408 27.30578023 45.34375 24.6328125 C45.3429408 21.95984477 45.3429408 21.95984477 43.09375 20.1328125 C42.10375 20.1328125 41.11375 20.1328125 40.09375 20.1328125 Z " fill="#36AEE1" transform="translate(151.90625,59.8671875)"/>
<path d="M0 0 C1.39025391 0.01933594 1.39025391 0.01933594 2.80859375 0.0390625 C5.68768817 0.39027118 7.93083076 1.1809577 10.5625 2.375 C10.5625 1.715 10.5625 1.055 10.5625 0.375 C13.2025 0.375 15.8425 0.375 18.5625 0.375 C18.70857549 4.39544681 18.79683213 8.41520497 18.875 12.4375 C18.91689453 13.57123047 18.95878906 14.70496094 19.00195312 15.87304688 C19.10734352 23.10282803 18.6290572 27.07001658 13.5625 32.375 C9.14256309 34.63407887 4.46270543 35.02397154 -0.4375 34.375 C-2.92510361 33.56147368 -5.0855012 32.5509994 -7.4375 31.375 C-7.1075 29.725 -6.7775 28.075 -6.4375 26.375 C-2.74862672 25.14537557 -0.35317507 25.7498974 3.40625 26.4140625 C5.67132832 26.59740238 5.67132832 26.59740238 7.34375 24.8984375 C7.94703125 24.14433594 7.94703125 24.14433594 8.5625 23.375 C7.74265625 23.42140625 6.9228125 23.4678125 6.078125 23.515625 C4.46164062 23.56976563 4.46164062 23.56976563 2.8125 23.625 C1.21148437 23.69460937 1.21148437 23.69460937 -0.421875 23.765625 C-3.4375 23.375 -3.4375 23.375 -5.828125 21.484375 C-7.4375 19.375 -7.4375 19.375 -7.4375 17.375 C-8.0975 17.375 -8.7575 17.375 -9.4375 17.375 C-9.54582169 15.29281638 -9.62323541 13.20900871 -9.6875 11.125 C-9.73390625 9.96484375 -9.7803125 8.8046875 -9.828125 7.609375 C-9.4375 4.375 -9.4375 4.375 -7.76171875 1.9765625 C-4.93330629 0.0275724 -3.4071414 -0.10396271 0 0 Z M3.5625 7.375 C1.25578085 10.09049154 1.25578085 10.09049154 1.9375 12.5625 C2.14375 13.160625 2.35 13.75875 2.5625 14.375 C4.5425 14.87 4.5425 14.87 6.5625 15.375 C7.77940533 13.60970405 7.77940533 13.60970405 8.5625 11.375 C7.77940533 9.14029595 7.77940533 9.14029595 6.5625 7.375 C5.5725 7.375 4.5825 7.375 3.5625 7.375 Z " fill="#30ADE1" transform="translate(372.4375,71.625)"/>
<path d="M0 0 C6.29303808 0.15831542 12.31741938 4.97738911 16.73828125 9.140625 C17.36283203 9.81351563 17.36283203 9.81351563 18 10.5 C18.680625 11.180625 19.36125 11.86125 20.0625 12.5625 C21.3825 12.5625 22.7025 12.5625 24.0625 12.5625 C24.0625 10.5825 24.0625 8.6025 24.0625 6.5625 C25.0525 6.8925 26.0425 7.2225 27.0625 7.5625 C27.55015108 14.75535339 27.55015108 14.75535339 25.25 18.5625 C23.0625 20.5625 23.0625 20.5625 20.0625 20.5625 C20.0625 21.2225 20.0625 21.8825 20.0625 22.5625 C12.42748085 23.1561516 5.83184912 21.94471235 -1.49755859 20.06445312 C-7.98000061 18.44275277 -14.24855777 17.79515886 -20.9375 17.5625 C-19.45907091 14.02850105 -17.49687221 12.00504483 -14.625 9.5 C-13.48611328 8.49259766 -13.48611328 8.49259766 -12.32421875 7.46484375 C-9.96287653 5.58272647 -7.53272624 4.09703076 -4.9375 2.5625 C-2.9375 0.5625 -2.9375 0.5625 0 0 Z " fill="#6A3394" transform="translate(110.9375,57.4375)"/>
<path d="M0 0 C7.02168349 1.7673086 12.21395237 7.08981736 17.4609375 11.87109375 C17.1103125 10.92234375 16.7596875 9.97359375 16.3984375 8.99609375 C15.4609375 5.87109375 15.4609375 5.87109375 16.4609375 3.87109375 C19.91107221 3.55744514 21.815852 3.42311771 24.7109375 5.43359375 C27.00595949 8.63023152 27.87473385 10.96306939 28.4609375 14.87109375 C27.83467389 17.73255835 26.92417597 20.32902692 25.4609375 22.87109375 C24.4709375 23.36609375 24.4709375 23.36609375 23.4609375 23.87109375 C23.48414063 24.71671875 23.50734375 25.56234375 23.53125 26.43359375 C23.76889566 41.37132113 23.76889566 41.37132113 20.03125 47.0390625 C16.00078925 49.91183771 11.92341491 49.55086772 7.0859375 49.62109375 C6.10455811 49.64856689 5.12317871 49.67604004 4.11206055 49.7043457 C1.22839137 49.77888052 -1.65480058 49.82645209 -4.5390625 49.87109375 C-6.02477068 49.91029694 -7.51045243 49.95052757 -8.99609375 49.9921875 C-18.11396051 50.15449508 -18.11396051 50.15449508 -21.5390625 47.87109375 C-19.98795776 47.86493042 -19.98795776 47.86493042 -18.40551758 47.85864258 C-14.55654552 47.83681508 -10.70859052 47.78248949 -6.86010742 47.71850586 C-5.19679538 47.69535709 -3.5333374 47.68093744 -1.86987305 47.67553711 C0.52647501 47.66622395 2.92053809 47.62518824 5.31640625 47.578125 C6.42607002 47.58402397 6.42607002 47.58402397 7.55815125 47.59004211 C11.48208208 47.47998528 13.3018756 46.99568176 16.42578125 44.54882812 C19.03872943 41.1108704 19.1534354 38.83866872 19.2734375 34.55859375 C19.32113281 33.30433594 19.36882812 32.05007812 19.41796875 30.7578125 C19.43214844 29.80519531 19.44632813 28.85257813 19.4609375 27.87109375 C18.4709375 28.20109375 17.4809375 28.53109375 16.4609375 28.87109375 C7.60484347 29.60809475 0.3437645 28.44156922 -8.0703125 25.76953125 C-15.26697519 23.90553078 -22.7342979 23.67095096 -29.5390625 26.87109375 C-33.07489065 29.35926912 -33.54500838 32.81841155 -34.5390625 36.87109375 C-34.8690625 36.87109375 -35.1990625 36.87109375 -35.5390625 36.87109375 C-35.16751554 29.56400351 -35.16751554 29.56400351 -32.1015625 26.18359375 C-31.2559375 25.42046875 -30.4103125 24.65734375 -29.5390625 23.87109375 C-29.2503125 23.08734375 -28.9615625 22.30359375 -28.6640625 21.49609375 C-26.00156819 15.28360702 -19.47867083 10.85214444 -14.43359375 6.546875 C-12.4602858 4.86983224 -12.4602858 4.86983224 -10.63671875 2.72265625 C-7.26240674 -0.25578675 -4.36799199 -0.09167391 0 0 Z M-10.5390625 6.87109375 C-11.30347656 7.32742187 -12.06789063 7.78375 -12.85546875 8.25390625 C-15.63476387 9.92876532 -17.92658792 11.78208231 -20.3515625 13.93359375 C-21.14175781 14.62582031 -21.93195313 15.31804687 -22.74609375 16.03125 C-24.77170408 17.68165076 -24.77170408 17.68165076 -24.5390625 19.87109375 C-23.79785156 19.896875 -23.05664062 19.92265625 -22.29296875 19.94921875 C-15.55728459 20.31197285 -9.43207168 21.26148771 -2.9140625 22.93359375 C3.64540701 24.61060547 9.65545868 25.40024545 16.4609375 24.87109375 C16.4609375 24.21109375 16.4609375 23.55109375 16.4609375 22.87109375 C17.0590625 22.78859375 17.6571875 22.70609375 18.2734375 22.62109375 C21.2576339 21.5979407 22.01854277 20.68376348 23.4609375 17.87109375 C23.70543046 15.15045927 23.59804131 12.61317001 23.4609375 9.87109375 C22.4709375 9.54109375 21.4809375 9.21109375 20.4609375 8.87109375 C20.4609375 10.85109375 20.4609375 12.83109375 20.4609375 14.87109375 C15.80210618 14.58874034 13.65431149 12.47344045 10.34765625 9.50390625 C6.1015316 5.82920624 2.32503792 3.15070881 -3.2890625 2.30859375 C-7.14378099 2.97575657 -8.04260067 3.95855494 -10.5390625 6.87109375 Z " fill="#C1CCDE" transform="translate(114.5390625,55.12890625)"/>
<path d="M0 0 C4.20235902 1.63638478 5.65658766 4.20205586 8 8 C8.33 8.33 8.66 8.66 9 9 C9 11.64 9 14.28 9 17 C3.06 17 -2.88 17 -9 17 C-9 17.99 -9 18.98 -9 20 C-7.58344207 20.0272415 -6.16672955 20.04650467 -4.75 20.0625 C-3.96109375 20.07410156 -3.1721875 20.08570312 -2.359375 20.09765625 C-0.09308998 20.00385306 1.8288895 19.63241063 4 19 C5.5625 20.8125 5.5625 20.8125 7 23 C6 26 6 26 4 27.1875 C-2.3029947 28.89456106 -8.99615225 28.64169301 -15 26 C-18.71802525 21.20254806 -18.68246821 15.81993724 -18 10 C-16.69967111 6.09901334 -15.41692428 4.3772172 -12.375 1.625 C-8.14401775 -0.4121396 -4.62516534 -0.72320767 0 0 Z M-4 9 C-4.99 10.485 -4.99 10.485 -6 12 C-4.68 12 -3.36 12 -2 12 C-2.33 11.01 -2.66 10.02 -3 9 C-3.33 9 -3.66 9 -4 9 Z " fill="#35AEE1" transform="translate(271,69)"/>
<path d="M0 0 C2.64 0 5.28 0 8 0 C8 3.3 8 6.6 8 10 C8.639375 9.649375 9.27875 9.29875 9.9375 8.9375 C14.05177843 7.67802701 17.8741788 7.71575512 22 9 C24.26171875 10.3828125 24.26171875 10.3828125 26 13 C26.48988588 16.59555585 26.37532639 20.12999554 26.25 23.75 C26.23195312 24.73355469 26.21390625 25.71710938 26.1953125 26.73046875 C26.14825241 29.15406341 26.07651086 31.57715625 26 34 C23.03 34 20.06 34 17 34 C17 28.39 17 22.78 17 17 C14.69 17 12.38 17 10 17 C8.5192152 19.9615696 8.64685963 22.83506295 8.4375 26.125 C8.35371094 27.40632813 8.26992187 28.68765625 8.18359375 30.0078125 C8.12300781 30.99523437 8.06242188 31.98265625 8 33 C5.36 33 2.72 33 0 33 C0 22.11 0 11.22 0 0 Z " fill="#2FACE1" transform="translate(151,63)"/>
<path d="M0 0 C5.80173901 4.80715518 5.80173901 4.80715518 6.6796875 9.37109375 C6.95126721 13.37417869 7.15031227 16.49375447 4.71875 19.82421875 C-0.27967492 24.19784055 -4.74527757 25.21018844 -11.296875 25.171875 C-15.37889574 24.58872918 -17.0440481 22.79390974 -19.8125 19.8125 C-21.90158513 15.63432975 -21.24998035 10.36351082 -20.8125 5.8125 C-19.05057885 2.54968305 -17.74802228 1.37381337 -14.625 -0.5 C-9.58860282 -1.73111931 -4.82933138 -2.03905103 0 0 Z M-7.8125 6.8125 C-10.16223818 8.71005144 -10.16223818 8.71005144 -9.9375 11.9375 C-9.89625 12.88625 -9.855 13.835 -9.8125 14.8125 C-7.8325 15.8025 -7.8325 15.8025 -5.8125 16.8125 C-4.42341361 15.64139816 -4.42341361 15.64139816 -4.5625 12.375 C-4.645 11.199375 -4.7275 10.02375 -4.8125 8.8125 C-5.8025 8.1525 -6.7925 7.4925 -7.8125 6.8125 Z " fill="#703C98" transform="translate(326.8125,72.1875)"/>
<path d="M0 0 C2.97 0 5.94 0 9 0 C11.30440013 4.29456388 12.78184562 8.31479085 14 13 C16.79163712 10.59231297 17.89717557 8.23853384 19.1875 4.8125 C19.53167969 3.91144531 19.87585938 3.01039062 20.23046875 2.08203125 C20.61138672 1.05142578 20.61138672 1.05142578 21 0 C23.64 0 26.28 0 29 0 C27.91369455 6.12281254 26.21278698 10.90773629 23.28515625 16.37890625 C21.9311543 19.14041175 21.00128301 21.88616801 20.0625 24.8125 C18.24786634 29.91660902 16.77462618 32.33722771 12 35 C7.69055229 35.75231345 4.72005571 35.48003714 1 33 C1.33 31.02 1.66 29.04 2 27 C4.64 27 7.28 27 10 27 C9.67 24.69 9.34 22.38 9 20 C8.34 20 7.68 20 7 20 C6.66226562 19.09636719 6.32453125 18.19273438 5.9765625 17.26171875 C5.53054688 16.08222656 5.08453125 14.90273437 4.625 13.6875 C4.18414062 12.51574219 3.74328125 11.34398438 3.2890625 10.13671875 C2.08510352 6.91446407 2.08510352 6.91446407 0 4 C0 2.68 0 1.36 0 0 Z " fill="#6B3494" transform="translate(278,71)"/>
<path d="M0 0 C2.97 0 5.94 0 9 0 C9 8.58 9 17.16 9 26 C5.968125 26.061875 2.93625 26.12375 -0.1875 26.1875 C-1.13391357 26.21481201 -2.08032715 26.24212402 -3.05541992 26.27026367 C-7.84936401 26.3175874 -11.15522761 26.20273273 -15 23 C-17.10209857 19.84685215 -17.2434761 19.13896919 -17.1953125 15.55078125 C-17.18886719 14.70322266 -17.18242187 13.85566406 -17.17578125 12.98242188 C-17.15902344 12.10134766 -17.14226562 11.22027344 -17.125 10.3125 C-17.11597656 9.41982422 -17.10695313 8.52714844 -17.09765625 7.60742188 C-17.07409748 5.40467686 -17.04120329 3.20247412 -17 1 C-14.36 1 -11.72 1 -9 1 C-8.67 5.95 -8.34 10.9 -8 16 C-6.35 16.33 -4.7 16.66 -3 17 C-2.67 16.34 -2.34 15.68 -2 15 C-1.34 15 -0.68 15 0 15 C0 10.05 0 5.1 0 0 Z " fill="#6C3796" transform="translate(352,71)"/>
<path d="M0 0 C1.1859375 0.00257812 2.371875 0.00515625 3.59375 0.0078125 C4.7796875 0.00523438 5.965625 0.00265625 7.1875 0 C10.09375 0.1328125 10.09375 0.1328125 11.09375 1.1328125 C11.33103814 7.65823623 11.33103814 7.65823623 10.09375 10.1328125 C11.08375 9.8028125 12.07375 9.4728125 13.09375 9.1328125 C20.21336722 8.55864982 20.21336722 8.55864982 23.96875 11.0078125 C25.34375 12.3828125 26.71875 13.7578125 28.09375 15.1328125 C29.41375 14.4728125 30.73375 13.8128125 32.09375 13.1328125 C31.43375 14.2465625 30.77375 15.3603125 30.09375 16.5078125 C27.96238647 20.73314723 27.81399825 24.06034336 28.015625 28.7265625 C28.12167359 31.99285915 27.70758562 34.92722646 27.09375 38.1328125 C26.09375 39.1328125 26.09375 39.1328125 23.84375 39.265625 C22.93625 39.26304688 22.02875 39.26046875 21.09375 39.2578125 C19.7325 39.26167969 19.7325 39.26167969 18.34375 39.265625 C16.09375 39.1328125 16.09375 39.1328125 15.09375 38.1328125 C14.93792697 36.79266029 14.84330858 35.44522347 14.77734375 34.09765625 C14.73544922 33.28876953 14.69355469 32.47988281 14.65039062 31.64648438 C14.61107422 30.79634766 14.57175781 29.94621094 14.53125 29.0703125 C14.48806641 28.21630859 14.44488281 27.36230469 14.40039062 26.48242188 C14.29398298 24.36609213 14.19333269 22.24947437 14.09375 20.1328125 C13.10375 20.7928125 12.11375 21.4528125 11.09375 22.1328125 C10.73583017 24.88175412 10.53580233 27.43898269 10.46875 30.1953125 C10.19793532 38.02862718 10.19793532 38.02862718 9.09375 39.1328125 C7.45144636 39.2573611 5.80322724 39.30849774 4.15625 39.3203125 C3.26035156 39.33449219 2.36445313 39.34867188 1.44140625 39.36328125 C-0.90625 39.1328125 -0.90625 39.1328125 -2.90625 37.1328125 C-3.16407721 34.42459252 -3.3039701 31.81137197 -3.35546875 29.09765625 C-3.37720657 28.3038002 -3.3989444 27.50994415 -3.42134094 26.69203186 C-3.46527283 25.01347085 -3.5044693 23.33478025 -3.53930664 21.65600586 C-3.59361141 19.0768945 -3.6637627 16.49857746 -3.73632812 13.91992188 C-3.77697812 12.29168978 -3.81672262 10.66343477 -3.85546875 9.03515625 C-3.87622971 8.25913559 -3.89699066 7.48311493 -3.91838074 6.68357849 C-3.95371263 4.83365612 -3.93545888 2.98284168 -3.90625 1.1328125 C-2.90625 0.1328125 -2.90625 0.1328125 0 0 Z M-0.90625 3.1328125 C-0.90625 14.0228125 -0.90625 24.9128125 -0.90625 36.1328125 C1.73375 36.1328125 4.37375 36.1328125 7.09375 36.1328125 C7.15433594 35.14539063 7.21492187 34.15796875 7.27734375 33.140625 C7.36113281 31.85929687 7.44492188 30.57796875 7.53125 29.2578125 C7.61246094 27.98164062 7.69367188 26.70546875 7.77734375 25.390625 C8.09375 22.1328125 8.09375 22.1328125 9.09375 20.1328125 C11.40375 20.1328125 13.71375 20.1328125 16.09375 20.1328125 C16.09375 25.7428125 16.09375 31.3528125 16.09375 37.1328125 C19.06375 37.1328125 22.03375 37.1328125 25.09375 37.1328125 C25.20167137 33.71530245 25.28102736 30.30119653 25.34375 26.8828125 C25.37726563 25.91472656 25.41078125 24.94664063 25.4453125 23.94921875 C25.60382969 18.41392396 25.60382969 18.41392396 23.35546875 13.515625 C19.70893066 11.28613539 16.31348012 11.03520308 12.09375 11.1328125 C9.14713594 11.92144771 9.14713594 11.92144771 7.09375 13.1328125 C7.09375 9.8328125 7.09375 6.5328125 7.09375 3.1328125 C4.45375 3.1328125 1.81375 3.1328125 -0.90625 3.1328125 Z " fill="#ABD7E9" transform="translate(151.90625,59.8671875)"/>
<path d="M0 0 C3.68548192 3.68548192 5 7.86850209 5 13 C5.66 13 6.32 13 7 13 C7.33 15.31 7.66 17.62 8 20 C5.36 20 2.72 20 0 20 C0 21.98 0 23.96 0 26 C3.14341993 27.57170996 6.55771451 27.23175783 10 27 C10.99 26.67 11.98 26.34 13 26 C13.495 24.515 13.495 24.515 14 23 C14.66 23 15.32 23 16 23 C16.66 20.69 17.32 18.38 18 16 C18.66 16 19.32 16 20 16 C19.74986131 20.2523578 19.43113402 22.47564781 16.6875 25.8125 C11.9460644 29.67180805 9.22125505 30.4365793 3 30 C0.125 29.25 0.125 29.25 -2 28 C-3 26.25 -3 26.25 -3 24 C-1.5625 20.75 -1.5625 20.75 0 18 C1.98 18.33 3.96 18.66 6 19 C4.68 16.03 3.36 13.06 2 10 C1.67 11.32 1.34 12.64 1 14 C0.05635879 16.59501332 -0.87828971 17.89006812 -2.9375 19.75 C-7.52537204 21.62260083 -12.10493803 21.56172842 -17 21 C-19.33984375 19.98046875 -19.33984375 19.98046875 -21 19 C-18.07355897 18.14396623 -15.60153173 17.94136009 -12.5625 18.0625 C-8.92097845 18.116582 -6.29236606 17.69928571 -3 16 C-3.66 14.35 -4.32 12.7 -5 11 C-5.515625 11.165 -6.03125 11.33 -6.5625 11.5 C-10.38650845 12.28441199 -14.44291427 12.77854287 -18 11 C-18 10.01 -18 9.02 -18 8 C-12.06 8 -6.12 8 0 8 C0 5.36 0 2.72 0 0 Z " fill="#C0DAE6" transform="translate(280,78)"/>
<path d="M0 0 C7.92 0 15.84 0 24 0 C23.9375 8.1875 23.9375 8.1875 23.90991211 10.73901367 C23.89545037 14.66374212 24.218361 18.14571113 25 22 C24.63461038 26.24854987 23.79366823 29.92287883 21.25 33.375 C15.25389763 37.70551838 10.31938641 39.03937475 3 38 C-0.15361228 36.92395209 -3.07151436 35.58449465 -6 34 C-5.44894091 30.0507432 -4.61064629 26.65079826 -3 23 C-2.01 23.33 -1.02 23.66 0 24 C2.22818441 24.06937062 4.45834524 24.08457084 6.6875 24.0625 C7.86699219 24.05347656 9.04648437 24.04445313 10.26171875 24.03515625 C11.16535156 24.02355469 12.06898438 24.01195313 13 24 C12.203125 25.94921875 12.203125 25.94921875 11 28 C6.39502873 29.15124282 2.61180108 29.01234658 -2 28 C-2.33 29.65 -2.66 31.3 -3 33 C3.29238232 35.51695293 8.43046546 35.80034682 14.8125 33.8125 C18.37064549 31.7892408 19.24920247 30.62442991 21 27 C21.49705774 24.10966551 21.49705774 24.10966551 21.51171875 21.04296875 C21.54716797 19.93115234 21.58261719 18.81933594 21.61914062 17.67382812 C21.64169922 16.52333984 21.66425781 15.37285156 21.6875 14.1875 C21.72166016 13.01767578 21.75582031 11.84785156 21.79101562 10.64257812 C21.87332316 7.76181446 21.94253178 4.88134862 22 2 C19.36 2 16.72 2 14 2 C14 2.66 14 3.32 14 4 C6.575 3.01 6.575 3.01 -1 2 C-0.67 1.34 -0.34 0.68 0 0 Z M5 27 C9 28 9 28 9 28 Z " fill="#B3D9E8" transform="translate(369,70)"/>
<path d="M0 0 C6.80978606 2.26720041 12.01948291 7.31576124 17.25 12.08203125 C16.899375 11.13328125 16.54875 10.18453125 16.1875 9.20703125 C15.25 6.08203125 15.25 6.08203125 16.25 4.08203125 C19.70013471 3.76838264 21.6049145 3.63405521 24.5 5.64453125 C26.7795501 8.81961889 27.65893578 11.20727691 28.25 15.08203125 C27.65935402 17.92275715 26.78783523 19.51897254 25.25 22.08203125 C23.375 22.95703125 23.375 22.95703125 21.25 23.08203125 C20.3425 23.26765625 19.435 23.45328125 18.5 23.64453125 C17.7575 23.78890625 17.015 23.93328125 16.25 24.08203125 C17.054375 23.46328125 17.85875 22.84453125 18.6875 22.20703125 C21.28874519 20.34039084 21.28874519 20.34039084 22.25 18.08203125 C22.3189472 16.70860294 22.33467708 15.33201023 22.3125 13.95703125 C22.291875 12.67828125 22.27125 11.39953125 22.25 10.08203125 C21.59 9.75203125 20.93 9.42203125 20.25 9.08203125 C20.25 11.06203125 20.25 13.04203125 20.25 15.08203125 C18.5625 15.83203125 18.5625 15.83203125 16.25 16.08203125 C13.5 14.26953125 13.5 14.26953125 11.25 12.08203125 C11.25 11.42203125 11.25 10.76203125 11.25 10.08203125 C10.198125 9.71078125 10.198125 9.71078125 9.125 9.33203125 C6.25 8.08203125 6.25 8.08203125 3.375 5.95703125 C-0.39158464 3.69708047 -2.42734286 3.4416376 -6.75 4.08203125 C-8.93739868 5.85271301 -8.93739868 5.85271301 -10.75 8.08203125 C-15.14285714 11.08203125 -15.14285714 11.08203125 -18.75 11.08203125 C-13.42138028 4.48020151 -8.95604341 -0.68802938 0 0 Z " fill="#D0CEDE" transform="translate(114.75,54.91796875)"/>
<path d="M0 0 C3.27075883 -0.0580476 6.54138524 -0.09361165 9.8125 -0.125 C10.74126953 -0.14175781 11.67003906 -0.15851563 12.62695312 -0.17578125 C13.51962891 -0.18222656 14.41230469 -0.18867187 15.33203125 -0.1953125 C16.15421143 -0.20578613 16.9763916 -0.21625977 17.82348633 -0.22705078 C20 0 20 0 23 2 C25.28397032 1.65394389 26.93409037 1.03295481 29 0 C37.20101229 -0.46420824 37.20101229 -0.46420824 41 2 C44.77980039 6.94091555 45.40149128 11.61793182 45.04296875 17.703125 C44.89649434 19.99015081 44.89649434 19.99015081 45.546875 22.09375 C46.2481981 25.04414373 45.06527183 27.24282585 44 30 C42.18757948 30.02687279 40.37504767 30.04633715 38.5625 30.0625 C37.55316406 30.07410156 36.54382813 30.08570312 35.50390625 30.09765625 C33 30 33 30 32 29 C31.92680379 26.30345146 31.90757463 23.63308542 31.9375 20.9375 C31.94201172 20.17888672 31.94652344 19.42027344 31.95117188 18.63867188 C31.9629932 16.75908129 31.98092922 14.87953101 32 13 C32.33 13 32.66 13 33 13 C33 17.95 33 22.9 33 28 C35.97 28 38.94 28 42 28 C41.67 20.41 41.34 12.82 41 5 C35.15518673 4.02586445 30.02760857 3.3271981 24.1875 4.625 C22 5 22 5 19 3 C16.77514259 2.72521627 16.77514259 2.72521627 14.33203125 2.8046875 C13.43935547 2.81113281 12.54667969 2.81757812 11.62695312 2.82421875 C10.69818359 2.84097656 9.76941406 2.85773438 8.8125 2.875 C7.87212891 2.88402344 6.93175781 2.89304687 5.96289062 2.90234375 C3.64167032 2.92590944 1.32096356 2.95880884 -1 3 C-0.67 2.01 -0.34 1.02 0 0 Z " fill="#C8DEEB" transform="translate(209,69)"/>
<path d="M0 0 C1.81242052 -0.02687279 3.62495233 -0.04633715 5.4375 -0.0625 C6.44683594 -0.07410156 7.45617187 -0.08570313 8.49609375 -0.09765625 C11 0 11 0 12 1 C12.23728814 7.52542373 12.23728814 7.52542373 11 10 C11.99 9.67 12.98 9.34 14 9 C21.11961722 8.42583732 21.11961722 8.42583732 24.875 10.875 C26.25 12.25 27.625 13.625 29 15 C30.32 14.34 31.64 13.68 33 13 C32.34 14.11375 31.68 15.2275 31 16.375 C28.86863647 20.60033473 28.72024825 23.92753086 28.921875 28.59375 C29.02792359 31.86004665 28.61383562 34.79441396 28 38 C27 39 27 39 24.75 39.1328125 C23.8425 39.13023438 22.935 39.12765625 22 39.125 C20.63875 39.12886719 20.63875 39.12886719 19.25 39.1328125 C17 39 17 39 16 38 C15.84417697 36.65984779 15.74955858 35.31241097 15.68359375 33.96484375 C15.64169922 33.15595703 15.59980469 32.34707031 15.55664062 31.51367188 C15.51732422 30.66353516 15.47800781 29.81339844 15.4375 28.9375 C15.39431641 28.08349609 15.35113281 27.22949219 15.30664062 26.34960938 C15.20023298 24.23327963 15.09958269 22.11666187 15 20 C15.66 20 16.32 20 17 20 C17 25.61 17 31.22 17 37 C19.97 37 22.94 37 26 37 C25.91320817 33.56124793 25.80634947 30.12516475 25.6875 26.6875 C25.66494141 25.71103516 25.64238281 24.73457031 25.61914062 23.72851562 C25.5659668 22.32182617 25.5659668 22.32182617 25.51171875 20.88671875 C25.48553467 20.02264404 25.45935059 19.15856934 25.43237305 18.26831055 C24.91660492 15.56249368 24.16291874 14.6574899 22 13 C19.86514212 12.42499602 19.86514212 12.42499602 17.5625 12.3125 C16.80066406 12.24675781 16.03882813 12.18101563 15.25390625 12.11328125 C13.17155729 12.00862246 11.08497738 12 9 12 C9 8.37 9 4.74 9 1 C6.03 1 3.06 1 0 1 C0 0.67 0 0.34 0 0 Z " fill="#C2DBE8" transform="translate(151,60)"/>
<path d="M0 0 C4.6 3.2 4.6 3.2 6 6 C7.10339651 18.43685494 7.10339651 18.43685494 3.75 23.1875 C2.8425 23.785625 1.935 24.38375 1 25 C0.39414062 25.52335937 -0.21171875 26.04671875 -0.8359375 26.5859375 C-4.8237812 29.19171262 -9.41797695 28.62812726 -14 28 C-16.46066399 26.91730784 -17.94308666 25.77895207 -20 24 C-17.93957089 24 -15.87872952 24.04958936 -13.8203125 24.140625 C-12.60085938 24.17671875 -11.38140625 24.2128125 -10.125 24.25 C-8.91070312 24.29640625 -7.69640625 24.3428125 -6.4453125 24.390625 C-2.36960987 23.9285272 -0.87192483 22.86163119 2 20 C4.36285193 16.45572211 4.58847205 14.45648546 4.52734375 10.29296875 C3.57723395 6.16175056 0.44167343 4.18024561 -3 2 C-5.43387753 0.78306124 -7.41838846 0.68040104 -10.125 0.4375 C-11.03507812 0.35371094 -11.94515625 0.26992187 -12.8828125 0.18359375 C-13.58148438 0.12300781 -14.28015625 0.06242187 -15 0 C-15 0.66 -15 1.32 -15 2 C-16.98 2.99 -18.96 3.98 -21 5 C-19.98929671 2.3354186 -19.0600516 1.04804128 -16.8125 -0.75 C-11.10488658 -3.28671708 -5.69547018 -2.1094334 0 0 Z " fill="#B9D9E8" transform="translate(416,71)"/>
<path d="M0 0 C0.94875 0.04125 1.8975 0.0825 2.875 0.125 C4.46912284 3.31324568 3.97674735 6.75396662 3.9375 10.25 C3.93298828 11.00410156 3.92847656 11.75820312 3.92382812 12.53515625 C3.91203499 14.39847127 3.89409942 16.26174555 3.875 18.125 C7.835 17.63 7.835 17.63 11.875 17.125 C11.96587891 15.66126953 11.96587891 15.66126953 12.05859375 14.16796875 C12.14238281 12.89566406 12.22617188 11.62335938 12.3125 10.3125 C12.39371094 9.04792969 12.47492188 7.78335938 12.55859375 6.48046875 C12.875 3.125 12.875 3.125 13.875 0.125 C15.525 0.125 17.175 0.125 18.875 0.125 C18.545 1.115 18.215 2.105 17.875 3.125 C17.875 2.465 17.875 1.805 17.875 1.125 C16.22657312 2.14021147 16.22657312 2.14021147 14.875 4.125 C14.6577899 6.77496326 14.59148446 9.17576558 14.6875 11.8125 C14.70103516 12.51439453 14.71457031 13.21628906 14.72851562 13.93945312 C14.76379818 15.66829829 14.81760417 17.39674765 14.875 19.125 C12.4953388 20.3148306 10.96014265 20.25849966 8.3125 20.25 C7.10400391 20.25386719 7.10400391 20.25386719 5.87109375 20.2578125 C3.875 20.125 3.875 20.125 2.875 19.125 C2.66389481 16.64158199 2.49905205 14.17543287 2.375 11.6875 C2.29792674 6.75585569 2.29792674 6.75585569 0.875 2.125 C0.215 2.125 -0.445 2.125 -1.125 2.125 C-2.710869 5.296738 -2.50366445 8.76013822 -2.6875 12.25 C-2.73068359 13.00410156 -2.77386719 13.75820312 -2.81835938 14.53515625 C-2.9244832 16.39821888 -3.02525001 18.26158524 -3.125 20.125 C-6.425 20.125 -9.725 20.125 -13.125 20.125 C-13.785 18.145 -14.445 16.165 -15.125 14.125 C-14.465 14.125 -13.805 14.125 -13.125 14.125 C-13.125 15.115 -13.125 16.105 -13.125 17.125 C-10.485 17.125 -7.845 17.125 -5.125 17.125 C-5.14820313 16.06539062 -5.17140625 15.00578125 -5.1953125 13.9140625 C-5.21406944 12.5260487 -5.23226972 11.1380273 -5.25 9.75 C-5.26675781 9.05132812 -5.28351563 8.35265625 -5.30078125 7.6328125 C-5.31844267 5.79602514 -5.22803261 3.95898037 -5.125 2.125 C-3.125 0.125 -3.125 0.125 0 0 Z " fill="#9CCEE5" transform="translate(222.125,78.875)"/>
<path d="M0 0 C0.33 1.32 0.66 2.64 1 4 C1.99 4 2.98 4 4 4 C2.02 4.99 2.02 4.99 0 6 C0 10.29 0 14.58 0 19 C0.66 19 1.32 19 2 19 C2.33 20.32 2.66 21.64 3 23 C2.34 23.33 1.68 23.66 1 24 C0.6278958 25.32303717 0.29369827 26.65737935 0 28 C-1 29 -1 29 -2.94946289 29.11352539 C-3.7821167 29.10828857 -4.61477051 29.10305176 -5.47265625 29.09765625 C-6.37177734 29.09443359 -7.27089844 29.09121094 -8.19726562 29.08789062 C-9.14279297 29.07951172 -10.08832031 29.07113281 -11.0625 29.0625 C-12.01189453 29.05798828 -12.96128906 29.05347656 -13.93945312 29.04882812 C-16.29303065 29.0370011 -18.64648477 29.02052025 -21 29 C-21 28.67 -21 28.34 -21 28 C-18.69 28 -16.38 28 -14 28 C-14 27.34 -14 26.68 -14 26 C-10.04 26.33 -6.08 26.66 -2 27 C-2 18.42 -2 9.84 -2 1 C-4.97 1 -7.94 1 -11 1 C-11 5.95 -11 10.9 -11 16 C-11.66 16 -12.32 16 -13 16 C-12.67 10.72 -12.34 5.44 -12 0 C-7.03301135 -0.82783144 -4.66671349 -1.00001003 0 0 Z " fill="#B1BDD7" transform="translate(363,70)"/>
<path d="M0 0 C0.99 0.66 1.98 1.32 3 2 C2.01 2.495 2.01 2.495 1 3 C1.01160156 3.86882812 1.02320313 4.73765625 1.03515625 5.6328125 C1.04417969 6.78523438 1.05320313 7.93765625 1.0625 9.125 C1.07410156 10.26195313 1.08570313 11.39890625 1.09765625 12.5703125 C1.005327 15.8129156 0.61389906 18.81932612 0 22 C-0.33 22 -0.66 22 -1 22 C-1 16.72 -1 11.44 -1 6 C-2.98 6.33 -4.96 6.66 -7 7 C-11.76291137 7.26590967 -16.3565919 7.19829887 -21 6 C-21 5.34 -21 4.68 -21 4 C-19.46279297 3.92652344 -19.46279297 3.92652344 -17.89453125 3.8515625 C-16.5338294 3.77648929 -15.17315356 3.70094345 -13.8125 3.625 C-13.13896484 3.5940625 -12.46542969 3.563125 -11.77148438 3.53125 C-5.36540438 3.19117622 -5.36540438 3.19117622 0 0 Z " fill="#DEE6EA" transform="translate(137,76)"/>
<path d="M0 0 C1.81242052 -0.02687279 3.62495233 -0.04633715 5.4375 -0.0625 C6.44683594 -0.07410156 7.45617187 -0.08570313 8.49609375 -0.09765625 C11 0 11 0 12 1 C12.23728814 7.52542373 12.23728814 7.52542373 11 10 C11.99 9.67 12.98 9.34 14 9 C21.0151912 8.43425877 21.0151912 8.43425877 24.9375 10.6875 C27.18903896 13.21195277 27.72253508 14.67042093 28 18 C27.195625 17.195625 26.39125 16.39125 25.5625 15.5625 C20.70542206 11.47840121 15.05935498 12 9 12 C9 8.37 9 4.74 9 1 C6.03 1 3.06 1 0 1 C0 0.67 0 0.34 0 0 Z " fill="#CCDCE6" transform="translate(151,60)"/>
<path d="M0 0 C0.1630807 3.02303295 0.28136405 6.03716706 0.375 9.0625 C0.45041016 10.33383789 0.45041016 10.33383789 0.52734375 11.63085938 C0.66241038 17.46123554 -0.38607973 20.46832009 -4.40771484 24.72045898 C-8.51243225 28.01896005 -14.02381631 27.34072595 -19 27 C-22.125 26 -22.125 26 -24 25 C-21.07579516 24.13993975 -18.65917673 23.96530649 -15.625 24.125 C-11.37070664 24.17406104 -8.61723445 23.38208122 -5 21 C-4.34 20.01 -3.68 19.02 -3 18 C-2.34 18 -1.68 18 -1 18 C-1.11493757 16.10353002 -1.24239642 14.20781668 -1.375 12.3125 C-1.44460937 11.25675781 -1.51421875 10.20101562 -1.5859375 9.11328125 C-1.98760089 6.09322731 -2.74069019 3.75921946 -4 1 C-1 0 -1 0 0 0 Z " fill="#BEDDE8" transform="translate(208,72)"/>
<path d="M0 0 C2.6077006 2.6077006 2.34635219 3.99187718 2.5625 7.625 C2.80834073 11.33942991 3.09665638 15.00247043 3.625 18.6875 C3.74875 19.780625 3.8725 20.87375 4 22 C3 23 3 23 0.53125 23.1328125 C-0.96921875 23.12894531 -0.96921875 23.12894531 -2.5 23.125 C-3.5003125 23.12757812 -4.500625 23.13015625 -5.53125 23.1328125 C-8 23 -8 23 -9 22 C-9.07319621 19.30345146 -9.09242537 16.63308542 -9.0625 13.9375 C-9.05798828 13.17888672 -9.05347656 12.42027344 -9.04882812 11.63867188 C-9.0370068 9.75908129 -9.01907078 7.87953101 -9 6 C-8.67 6 -8.34 6 -8 6 C-8 10.95 -8 15.9 -8 21 C-5.03 21 -2.06 21 1 21 C0.67 14.07 0.34 7.14 0 0 Z " fill="#ABD0E2" transform="translate(250,76)"/>
<path d="M0 0 C2.25 0.3125 2.25 0.3125 4 1 C2.27791839 3.48855724 0.84554764 4.83462475 -2.16699219 5.42382812 C-4.90726358 5.62369437 -7.62770693 5.71011734 -10.375 5.75 C-11.35637939 5.77747314 -12.33775879 5.80494629 -13.34887695 5.83325195 C-16.23254613 5.90778677 -19.11573808 5.95535834 -22 6 C-23.48570818 6.03920319 -24.97138993 6.07943382 -26.45703125 6.12109375 C-35.57489801 6.28340133 -35.57489801 6.28340133 -39 4 C-37.96069336 3.98541748 -36.92138672 3.97083496 -35.85058594 3.95581055 C-31.98874785 3.89776819 -28.12748924 3.8205362 -24.26611328 3.73754883 C-22.59596167 3.7043273 -20.92569854 3.67628666 -19.25537109 3.65356445 C-16.85205637 3.61996666 -14.44976101 3.56765054 -12.046875 3.51171875 C-11.30193787 3.50532883 -10.55700073 3.4989389 -9.78948975 3.49235535 C-5.51051144 3.37143037 -3.20653831 2.8360751 0 0 Z " fill="#CADEEC" transform="translate(132,99)"/>
<path d="M0 0 C0.66 0.99 1.32 1.98 2 3 C1.01 4.485 1.01 4.485 0 6 C-0.35599164 8.80144454 -0.35599164 8.80144454 -0.3125 11.875 C-0.32925781 12.90367188 -0.34601563 13.93234375 -0.36328125 14.9921875 C0.04292085 18.3553662 1.07562281 20.2479883 3 23 C-0.36720387 21.60667426 -1.9859524 20.0210714 -4 17 C-4.66 18.98 -5.32 20.96 -6 23 C-6.66 22.67 -7.32 22.34 -8 22 C-7.56902075 16.68458922 -5.50955757 12.43056145 -3.25390625 7.68359375 C-2.07148287 5.15298671 -1.01192004 2.60275247 0 0 Z " fill="#BBADCC" transform="translate(307,72)"/>
<path d="M0 0 C7.59 0 15.18 0 23 0 C23 5.61 23 11.22 23 17 C22.01 17 21.02 17 20 17 C20.33 11.72 20.66 6.44 21 1 C20.01 1.33 19.02 1.66 18 2 C15.68980664 2.12070269 13.3758126 2.175363 11.0625 2.1875 C9.83660156 2.20167969 8.61070313 2.21585937 7.34765625 2.23046875 C4 2 4 2 0 0 Z " fill="#9ECEE4" transform="translate(113,82)"/>
<path d="M0 0 C0.66 0 1.32 0 2 0 C1.74986131 4.2523578 1.43113402 6.47564781 -1.3125 9.8125 C-6.10704408 13.71503588 -8.73420455 14.24099213 -15 14 C-15 13.34 -15 12.68 -15 12 C-13.906875 11.855625 -12.81375 11.71125 -11.6875 11.5625 C-8.06877013 11.11711896 -8.06877013 11.11711896 -5 10 C-4.67 9.01 -4.34 8.02 -4 7 C-3.34 7 -2.68 7 -2 7 C-1.34 4.69 -0.68 2.38 0 0 Z " fill="#D4D2E0" transform="translate(298,94)"/>
<path d="M0 0 C0.33 1.32 0.66 2.64 1 4 C-4.22944506 8.38142694 -7.67153077 9.27358866 -14.34765625 9.234375 C-18.30117736 8.88502115 -21.3854921 7.60644796 -25 6 C-21.77705298 5.1010375 -20.22314591 5.19421352 -17 6 C-11.02577472 6.39175248 -7.28524894 5.85403443 -2 3 C-1.34 2.01 -0.68 1.02 0 0 Z " fill="#BBD9E9" transform="translate(389,99)"/>
<path d="M0 0 C2 2 2 2 2 6 C2.66 6 3.32 6 4 6 C4.33 8.31 4.66 10.62 5 13 C2.36 13 -0.28 13 -3 13 C-3.40749675 17.25731568 -3.40749675 17.25731568 -1.5 20.875 C-1.005 21.24625 -0.51 21.6175 0 22 C-1.65 21.67 -3.3 21.34 -5 21 C-5.6875 19.375 -5.6875 19.375 -6 17 C-4.5625 13.75 -4.5625 13.75 -3 11 C-0.03 11.495 -0.03 11.495 3 12 C2.7834375 11.46890625 2.566875 10.9378125 2.34375 10.390625 C2.0653125 9.68421875 1.786875 8.9778125 1.5 8.25 C1.2215625 7.55390625 0.943125 6.8578125 0.65625 6.140625 C0 4 0 4 0 0 Z " fill="#BFB6D2" transform="translate(283,85)"/>
<path d="M0 0 C1.2065625 0.0309375 1.2065625 0.0309375 2.4375 0.0625 C1.71433594 0.55363281 1.71433594 0.55363281 0.9765625 1.0546875 C-1.37708187 4.12517787 -1.09583658 7.46203656 -1.1875 11.1875 C-1.45777027 18.95777027 -1.45777027 18.95777027 -2.5625 20.0625 C-4.08178038 20.13429964 -5.60417482 20.14642007 -7.125 20.125 C-7.95128906 20.11597656 -8.77757812 20.10695313 -9.62890625 20.09765625 C-10.58603516 20.08025391 -10.58603516 20.08025391 -11.5625 20.0625 C-11.5625 19.7325 -11.5625 19.4025 -11.5625 19.0625 C-8.9225 19.0625 -6.2825 19.0625 -3.5625 19.0625 C-3.57410156 17.77472656 -3.58570313 16.48695312 -3.59765625 15.16015625 C-3.6070327 13.48177228 -3.61613305 11.80338674 -3.625 10.125 C-3.63337891 9.27486328 -3.64175781 8.42472656 -3.65039062 7.54882812 C-3.65361328 6.73994141 -3.65683594 5.93105469 -3.66015625 5.09765625 C-3.66539307 4.3487915 -3.67062988 3.59992676 -3.67602539 2.82836914 C-3.49028527 -0.06078847 -2.89596652 0.07063333 0 0 Z " fill="#E7EDF0" transform="translate(163.5625,78.9375)"/>
<path d="M0 0 C0.99 0.33 1.98 0.66 3 1 C4.40824893 1.08021999 5.81997231 1.10765977 7.23046875 1.09765625 C8.03291016 1.09443359 8.83535156 1.09121094 9.66210938 1.08789062 C10.49548828 1.07951172 11.32886719 1.07113281 12.1875 1.0625 C13.4549707 1.05573242 13.4549707 1.05573242 14.74804688 1.04882812 C16.83206155 1.03705403 18.91603977 1.0191189 21 1 C18.88688717 3.50002081 17.67297374 4.86174558 14.4140625 5.53125 C8.32552013 5.46303104 4.6155796 5.11659802 0 1 C0 0.67 0 0.34 0 0 Z " fill="#A7D2E4" transform="translate(396,94)"/>
<path d="M0 0 C0.66 0 1.32 0 2 0 C2.50559908 1.43554025 3.0042749 2.8735202 3.5 4.3125 C3.7784375 5.11300781 4.056875 5.91351563 4.34375 6.73828125 C5 9 5 9 5 12 C6.32 12.33 7.64 12.66 9 13 C7.265625 13.71484375 7.265625 13.71484375 5 14 C2.859375 12.56640625 2.859375 12.56640625 0.75 10.5625 C0.04359375 9.90378906 -0.6628125 9.24507812 -1.390625 8.56640625 C-1.92171875 8.04949219 -2.4528125 7.53257813 -3 7 C-2.34 6.34 -1.68 5.68 -1 5 C-0.35232207 2.42938689 -0.35232207 2.42938689 0 0 Z " fill="#ADD4E5" transform="translate(85,89)"/>
<path d="M0 0 C1.65 0 3.3 0 5 0 C4.67 0.99 4.34 1.98 4 3 C4 2.34 4 1.68 4 1 C2.35157312 2.01521147 2.35157312 2.01521147 1 4 C0.7827899 6.64996326 0.71648446 9.05076558 0.8125 11.6875 C0.82603516 12.38939453 0.83957031 13.09128906 0.85351562 13.81445312 C0.88879818 15.54329829 0.94260417 17.27174765 1 19 C-1.40545638 20.20272819 -2.94996953 20.10071472 -5.625 20.0625 C-6.85089844 20.04896484 -6.85089844 20.04896484 -8.1015625 20.03515625 C-8.72804687 20.02355469 -9.35453125 20.01195313 -10 20 C-10 19.01 -10 18.02 -10 17 C-7.36 17 -4.72 17 -2 17 C-1.93941406 16.02417969 -1.87882813 15.04835938 -1.81640625 14.04296875 C-1.73261719 12.77066406 -1.64882812 11.49835938 -1.5625 10.1875 C-1.48128906 8.92292969 -1.40007812 7.65835938 -1.31640625 6.35546875 C-1 3 -1 3 0 0 Z " fill="#C3DAE7" transform="translate(236,79)"/>
<path d="M0 0 C0.33 0 0.66 0 1 0 C1 4.62 1 9.24 1 14 C3.64 14 6.28 14 9 14 C9 9.38 9 4.76 9 0 C9.33 0 9.66 0 10 0 C10 5.28 10 10.56 10 16 C3.06640625 16.87890625 3.06640625 16.87890625 1 17 C0 16 0 16 -0.09765625 12.40234375 C-0.0909822 10.91403133 -0.07902183 9.42573568 -0.0625 7.9375 C-0.05798828 7.17888672 -0.05347656 6.42027344 -0.04882812 5.63867188 C-0.0370068 3.75908129 -0.01907078 1.87953101 0 0 Z " fill="#8AC7E3" transform="translate(150,82)"/>
<path d="M0 0 C0.66 0.33 1.32 0.66 2 1 C2.125 3.375 2.125 3.375 2 6 C0 8 0 8 -2.06298828 8.22705078 C-3.30411377 8.21134033 -3.30411377 8.21134033 -4.5703125 8.1953125 C-5.46621094 8.18886719 -6.36210937 8.18242188 -7.28515625 8.17578125 C-8.22230469 8.15902344 -9.15945313 8.14226562 -10.125 8.125 C-11.06988281 8.11597656 -12.01476562 8.10695313 -12.98828125 8.09765625 C-15.32577292 8.07404522 -17.66276123 8.04111516 -20 8 C-20 7.67 -20 7.34 -20 7 C-17.69 7 -15.38 7 -13 7 C-13 6.34 -13 5.68 -13 5 C-9.04 5 -5.08 5 -1 5 C-0.67 3.35 -0.34 1.7 0 0 Z " fill="#DADBE5" transform="translate(362,91)"/>
<path d="M0 0 C0.66 0.33 1.32 0.66 2 1 C1.2884375 2.175625 1.2884375 2.175625 0.5625 3.375 C-1.51739346 6.86922101 -2.1201587 8.58889132 -2.0625 12.625 C-2.05347656 13.44226563 -2.04445312 14.25953125 -2.03515625 15.1015625 C-2.02355469 15.72804688 -2.01195312 16.35453125 -2 17 C-2.66 17 -3.32 17 -4 17 C-4 18.98 -4 20.96 -4 23 C-4.33 23 -4.66 23 -5 23 C-5 16.73 -5 10.46 -5 4 C-4.34 4 -3.68 4 -3 4 C-1.36323743 2.0399719 -1.36323743 2.0399719 0 0 Z " fill="#9ECEE4" transform="translate(182,73)"/>
<path d="M0 0 C2.79836832 -0.4305182 4.35526759 -0.37794659 6.8125 1.0625 C8.60842137 3.99268751 8.18977574 6.6472953 8 10 C7.01 10 6.02 10 5 10 C5.33 9.67 5.66 9.34 6 9 C6.04063832 7.33382885 6.042721 5.66611905 6 4 C4.68 3.67 3.36 3.34 2 3 C1.20046862 6.28696233 0.90341064 7.71023192 2 11 C0.68 10.34 -0.64 9.68 -2 9 C-2.25 3.375 -2.25 3.375 0 0 Z " fill="#8CC8E3" transform="translate(190,78)"/>
<path d="M0 0 C6.87433155 0 6.87433155 0 9.64453125 2.4609375 C13.10849018 7.35240688 13.4479531 11.6007462 13.078125 17.484375 C13.00319959 19.89697325 13.29293264 21.70738765 14 24 C13.34 24 12.68 24 12 24 C10.96577301 20.89731903 10.72527599 18.31693348 10.5 15.0625 C10.19127743 9.95139373 10.19127743 9.95139373 9 5 C7.23470405 3.78309467 7.23470405 3.78309467 5 3 C4.0925 2.62875 3.185 2.2575 2.25 1.875 C1.5075 1.58625 0.765 1.2975 0 1 C0 0.67 0 0.34 0 0 Z " fill="#CEE4EC" transform="translate(241,69)"/>
<path d="M0 0 C2.61627165 2.61627165 2.77669287 4.35265021 3 8 C1.5625 9.875 1.5625 9.875 0 11 C0 10.34 0 9.68 0 9 C-2.62538284 9.14053872 -5.25017427 9.28718947 -7.875 9.4375 C-8.99455078 9.49647461 -8.99455078 9.49647461 -10.13671875 9.55664062 C-14.19986864 9.71573624 -14.19986864 9.71573624 -18 11 C-18 10.01 -18 9.02 -18 8 C-12.06 8 -6.12 8 0 8 C0 5.36 0 2.72 0 0 Z " fill="#9BC6DF" transform="translate(280,78)"/>
<path d="M0 0 C7.40239645 -0.12886183 14.63959083 0.20274098 22 1 C22 1.33 22 1.66 22 2 C19.36 2 16.72 2 14 2 C14 2.66 14 3.32 14 4 C6.575 3.01 6.575 3.01 -1 2 C-0.67 1.34 -0.34 0.68 0 0 Z " fill="#8BC9E5" transform="translate(369,70)"/>
<path d="M0 0 C0.77085937 -0.01417969 1.54171875 -0.02835937 2.3359375 -0.04296875 C4.84334888 0.20948393 6.45761902 0.93556533 8.625 2.1875 C5.82715873 3.12011376 3.76030045 3.17355323 0.75 3.125 C-2.99408737 3.09007381 -5.94368425 3.55354012 -9.375 5.1875 C-10.79555068 7.18886244 -10.79555068 7.18886244 -11.375 9.1875 C-11.375 6.1875 -11.375 6.1875 -9 3.5625 C-5.72842922 0.60250739 -4.28671704 0.03560396 0 0 Z " fill="#BBDBEC" transform="translate(266.375,68.8125)"/>
<path d="M0 0 C1.2375 -0.020625 2.475 -0.04125 3.75 -0.0625 C4.44609375 -0.07410156 5.1421875 -0.08570312 5.859375 -0.09765625 C8 0 8 0 12 1 C12 6.61 12 12.22 12 18 C11.67 18 11.34 18 11 18 C11 12.72 11 7.44 11 2 C9.39125 2.144375 7.7825 2.28875 6.125 2.4375 C5.22007812 2.51871094 4.31515625 2.59992188 3.3828125 2.68359375 C0.98889139 2.86989285 0.98889139 2.86989285 -1 4 C-0.67 2.68 -0.34 1.36 0 0 Z " fill="#D5D8E5" transform="translate(334,69)"/>
<path d="M0 0 C0.66 0.33 1.32 0.66 2 1 C-0.97 3.97 -3.94 6.94 -7 10 C-4.69 10.33 -2.38 10.66 0 11 C0 11.33 0 11.66 0 12 C-3.63 12 -7.26 12 -11 12 C-9.04612336 8.09224671 -7.61107271 6.52377661 -4.375 3.75 C-3.14910156 2.69039063 -3.14910156 2.69039063 -1.8984375 1.609375 C-1.27195312 1.07828125 -0.64546875 0.5471875 0 0 Z " fill="#794B9F" transform="translate(101,63)"/>
<path d="M0 0 C4.95 0 9.9 0 15 0 C14.67 0.99 14.34 1.98 14 3 C4.58997722 3.18451025 4.58997722 3.18451025 0 2 C0 1.34 0 0.68 0 0 Z " fill="#D3D9E2" transform="translate(116,80)"/>
<path d="M0 0 C0.99 0.66 1.98 1.32 3 2 C-1.37270282 3.0931757 -5.51056976 3 -10 3 C-12.84715499 3.43354565 -12.84715499 3.43354565 -15 4 C-11.43969954 -1.42521975 -5.84967755 -0.76804927 0 0 Z " fill="#C5DBE6" transform="translate(199,69)"/>
<path d="M0 0 C0.92619141 0.15662109 0.92619141 0.15662109 1.87109375 0.31640625 C1.87109375 0.64640625 1.87109375 0.97640625 1.87109375 1.31640625 C0.79859375 1.39890625 -0.27390625 1.48140625 -1.37890625 1.56640625 C-5.55098771 2.40082254 -6.40455339 3.22880634 -9.12890625 6.31640625 C-13.52176339 9.31640625 -13.52176339 9.31640625 -17.12890625 9.31640625 C-11.9304149 2.98780809 -8.4993627 -0.81500738 0 0 Z " fill="#A48DC4" transform="translate(113.12890625,56.68359375)"/>
<path d="M0 0 C2.97 0 5.94 0 9 0 C10.06775224 1.96466413 11.06553465 3.96855359 12 6 C11.67 6.66 11.34 7.32 11 8 C9 5 9 5 9 2 C6.69 2 4.38 2 2 2 C2.33 3.65 2.66 5.3 3 7 C1.5 5.75 1.5 5.75 0 4 C0 2.68 0 1.36 0 0 Z " fill="#8760A9" transform="translate(278,71)"/>
<path d="M0 0 C2.39763185 2.39763185 2.34280586 3.33273498 2.625 6.625 C2.69976562 7.44226563 2.77453125 8.25953125 2.8515625 9.1015625 C2.92503906 10.04128906 2.92503906 10.04128906 3 11 C-0.3171411 12.4216319 -3.44219804 13.39009109 -7 14 C-6.21625 13.54625 -5.4325 13.0925 -4.625 12.625 C-0.90441321 8.90441321 -0.65037958 5.08655077 0 0 Z " fill="#ADA7CA" transform="translate(138,65)"/>
<path d="M0 0 C0.556875 0.268125 1.11375 0.53625 1.6875 0.8125 C0.6975 0.8125 -0.2925 0.8125 -1.3125 0.8125 C-1.745625 1.740625 -1.745625 1.740625 -2.1875 2.6875 C-3.3125 4.8125 -3.3125 4.8125 -5.3125 6.8125 C-5.77061675 8.78485333 -5.77061675 8.78485333 -5.9375 10.9375 C-6.06125 12.21625 -6.185 13.495 -6.3125 14.8125 C-6.9725 14.4825 -7.6325 14.1525 -8.3125 13.8125 C-8.19525985 8.92038847 -7.97498014 5.70774343 -5 1.6875 C-2.3125 -0.1875 -2.3125 -0.1875 0 0 Z " fill="#49B5E3" transform="translate(88.3125,80.1875)"/>
<path d="M0 0 C1.69140625 1.546875 1.69140625 1.546875 3 3 C2.26394531 2.98839844 1.52789062 2.97679688 0.76953125 2.96484375 C-0.20628906 2.95582031 -1.18210938 2.94679688 -2.1875 2.9375 C-3.15042969 2.92589844 -4.11335937 2.91429688 -5.10546875 2.90234375 C-7.85576513 2.99513378 -10.32479591 3.37888315 -13 4 C-13.33 3.34 -13.66 2.68 -14 2 C-13.05125 1.690625 -12.1025 1.38125 -11.125 1.0625 C-4.65038381 -1.1388695 -4.65038381 -1.1388695 0 0 Z " fill="#95CCE3" transform="translate(244,70)"/>
<path d="M0 0 C1.8125 0.125 1.8125 0.125 4 1 C5.875 3.625 5.875 3.625 7 7 C6.1875 10.875 6.1875 10.875 5 14 C4.67 14 4.34 14 4 14 C3.81824219 12.98679687 3.81824219 12.98679687 3.6328125 11.953125 C3.46523437 11.06109375 3.29765625 10.1690625 3.125 9.25 C2.96257812 8.36828125 2.80015625 7.4865625 2.6328125 6.578125 C2.03203736 4.13052256 1.22002883 2.19400143 0 0 Z " fill="#E0E4EC" transform="translate(136,61)"/>
<path d="M0 0 C0.99 0.33 1.98 0.66 3 1 C3 2.32 3 3.64 3 5 C2.34 5 1.68 5 1 5 C0.67 4.34 0.34 3.68 0 3 C-4.0100934 2.82135369 -4.0100934 2.82135369 -8 3 C-8.66 3.66 -9.32 4.32 -10 5 C-10 3.68 -10 2.36 -10 1 C-6.85658007 -0.57170996 -3.44228549 -0.23175783 0 0 Z " fill="#D3D4E2" transform="translate(307,69)"/>
<path d="M0 0 C0.99 0.33 1.98 0.66 3 1 C2.773125 1.763125 2.54625 2.52625 2.3125 3.3125 C2.209375 4.199375 2.10625 5.08625 2 6 C3.33378575 7.8354799 3.33378575 7.8354799 5 9 C-0.875 8.125 -0.875 8.125 -2 7 C-2.1875 4.5625 -2.1875 4.5625 -2 2 C-1.34 1.34 -0.68 0.68 0 0 Z " fill="#8CC6E0" transform="translate(373,79)"/>
<path d="M0 0 C0.66 0.99 1.32 1.98 2 3 C1.01 4.485 1.01 4.485 0 6 C-0.35599164 8.80144454 -0.35599164 8.80144454 -0.3125 11.875 C-0.33763672 13.41800781 -0.33763672 13.41800781 -0.36328125 14.9921875 C0.04292085 18.3553662 1.07562281 20.2479883 3 23 C-0.875 21.25 -0.875 21.25 -2 19 C-2.12362239 16.73167291 -2.17560648 14.45916213 -2.1875 12.1875 C-2.20167969 10.96417969 -2.21585937 9.74085937 -2.23046875 8.48046875 C-2.01147479 5.17328877 -1.42682853 2.9608102 0 0 Z " fill="#A48BBF" transform="translate(307,72)"/>
<path d="M0 0 C0.66 0.66 1.32 1.32 2 2 C-1.3 2 -4.6 2 -8 2 C-8 2.66 -8 3.32 -8 4 C-9.98 4.99 -11.96 5.98 -14 7 C-12.98929671 4.3354186 -12.0600516 3.04804128 -9.8125 1.25 C-6.32193337 -0.30136295 -3.78186142 -0.35677938 0 0 Z " fill="#B5DFEF" transform="translate(409,69)"/>
<path d="M0 0 C0.99 0.33 1.98 0.66 3 1 C2.67 3.31 2.34 5.62 2 8 C0.3125 8.8125 0.3125 8.8125 -2 9 C-4.75 6.5625 -4.75 6.5625 -7 4 C-4.03 4.495 -4.03 4.495 -1 5 C-0.67 3.35 -0.34 1.7 0 0 Z " fill="#AA93C1" transform="translate(133,62)"/>
<path d="M0 0 C0.66 0.33 1.32 0.66 2 1 C1.67 1.33 1.34 1.66 1 2 C0.73706944 6.03160191 0.70595156 7.55892734 3 11 C-1.875 9.125 -1.875 9.125 -3 8 C-3.25 5.0625 -3.25 5.0625 -3 2 C-2.01 1.34 -1.02 0.68 0 0 Z " fill="#C6BFD6" transform="translate(317,79)"/>
<path d="M0 0 C0.66 0 1.32 0 2 0 C1.125 6.75 1.125 6.75 0 9 C-2.5625 9.625 -2.5625 9.625 -5 10 C-4.67 9.01 -4.34 8.02 -4 7 C-3.34 7 -2.68 7 -2 7 C-1.34 4.69 -0.68 2.38 0 0 Z " fill="#CCC6D9" transform="translate(298,94)"/>
<path d="M0 0 C0.99 0.33 1.98 0.66 3 1 C2.67 1.33 2.34 1.66 2 2 C2.99 2.33 3.98 2.66 5 3 C4.67 2.01 4.34 1.02 4 0 C5.32 0.66 6.64 1.32 8 2 C8 2.66 8 3.32 8 4 C4.7 4 1.4 4 -2 4 C-2 3.01 -2 2.02 -2 1 C-1.34 0.67 -0.68 0.34 0 0 Z " fill="#85CAE5" transform="translate(264,78)"/>
<path d="M0 0 C4.95 0.99 9.9 1.98 15 3 C13.68 3.33 12.36 3.66 11 4 C10.67 4.66 10.34 5.32 10 6 C8.68 5.34 7.36 4.68 6 4 C6 3.34 6 2.68 6 2 C4.35 2 2.7 2 1 2 C0.67 1.34 0.34 0.68 0 0 Z " fill="#CCCCDC" transform="translate(105,76)"/>
<path d="M0 0 C3.55420724 0.29618394 4.80337043 0.80337043 7.375 3.375 C8.179375 4.674375 8.179375 4.674375 9 6 C8.67 6.99 8.34 7.98 8 9 C6.99403703 8.0479279 5.99538437 7.08812654 5 6.125 C4.443125 5.59132813 3.88625 5.05765625 3.3125 4.5078125 C2 3 2 3 2 1 C1.34 0.67 0.68 0.34 0 0 Z " fill="#DBE9EF" transform="translate(170,69)"/>
<path d="M0 0 C0 0.66 0 1.32 0 2 C-1.65 2 -3.3 2 -5 2 C-4.34 4.31 -3.68 6.62 -3 9 C-4.65 7.35 -6.3 5.7 -8 4 C-7.67 3.01 -7.34 2.02 -7 1 C-4.53721199 -0.231394 -2.7204945 -0.07159196 0 0 Z " fill="#C7D1E0" transform="translate(283,69)"/>
<path d="M0 0 C1.2065625 0.0309375 1.2065625 0.0309375 2.4375 0.0625 C1.73173828 0.65998047 1.73173828 0.65998047 1.01171875 1.26953125 C-0.88010553 3.4242393 -1.22310789 4.95341882 -1.75 7.75 C-1.90855469 8.55824219 -2.06710938 9.36648437 -2.23046875 10.19921875 C-2.34003906 10.81410156 -2.44960937 11.42898437 -2.5625 12.0625 C-2.8925 12.0625 -3.2225 12.0625 -3.5625 12.0625 C-3.58937279 10.25007948 -3.60883715 8.43754767 -3.625 6.625 C-3.63660156 5.61566406 -3.64820313 4.60632813 -3.66015625 3.56640625 C-3.52706167 0.15386128 -3.42090834 0.08343679 0 0 Z " fill="#BED8E7" transform="translate(163.5625,78.9375)"/>
<path d="M0 0 C2.64 0 5.28 0 8 0 C7.67 1.98 7.34 3.96 7 6 C6.67 4.68 6.34 3.36 6 2 C3.69 2.33 1.38 2.66 -1 3 C-0.67 2.01 -0.34 1.02 0 0 Z " fill="#855DA7" transform="translate(299,71)"/>
<path d="M0 0 C0.33 0.66 0.66 1.32 1 2 C0.22265625 3.9453125 0.22265625 3.9453125 -0.9375 6.125 C-1.31777344 6.84945312 -1.69804687 7.57390625 -2.08984375 8.3203125 C-2.39019531 8.87460938 -2.69054687 9.42890625 -3 10 C-3.99 10 -4.98 10 -6 10 C-6 9.34 -6 8.68 -6 8 C-5.01 8 -4.02 8 -3 8 C-2.87625 7.236875 -2.7525 6.47375 -2.625 5.6875 C-2 3 -2 3 0 0 Z " fill="#9D89BB" transform="translate(297,74)"/>
<path d="M0 0 C2 2 2 2 2 6 C2.66 6 3.32 6 4 6 C4.33 8.31 4.66 10.62 5 13 C1.55834073 8.77614544 0 5.49939416 0 0 Z " fill="#A482BA" transform="translate(283,85)"/>
<path d="M0 0 C1.98 0.99 1.98 0.99 4 2 C4 3.98 4 5.96 4 8 C2.02 8.99 2.02 8.99 0 10 C0.185625 8.906875 0.37125 7.81375 0.5625 6.6875 C1.2578068 3.06375867 1.2578068 3.06375867 0 0 Z " fill="#79C9E4" transform="translate(408,79)"/>
<path d="M0 0 C1.44197868 2.88395737 1.58833581 5.82430479 2 9 C0.68 8.67 -0.64 8.34 -2 8 C-2.125 5.125 -2.125 5.125 -2 2 C-1.34 1.34 -0.68 0.68 0 0 Z " fill="#C1DFEB" transform="translate(404,80)"/>
<path d="M0 0 C0.66 0.33 1.32 0.66 2 1 C1.814375 1.763125 1.62875 2.52625 1.4375 3.3125 C0.77180827 6.08967375 0.77180827 6.08967375 2 9 C0.68 8.34 -0.64 7.68 -2 7 C-2 5.02 -2 3.04 -2 1 C-1.34 0.67 -0.68 0.34 0 0 Z " fill="#BFDBE5" transform="translate(190,80)"/>
<path d="M0 0 C2.64 1.65 5.28 3.3 8 5 C5 6 5 6 3.17578125 5.22265625 C1.45052083 4.1484375 -0.27473958 3.07421875 -2 2 C-1.34 1.34 -0.68 0.68 0 0 Z " fill="#D7D8E2" transform="translate(123,61)"/>
<path d="M0 0 C0.33 0.66 0.66 1.32 1 2 C1.99 2.66 2.98 3.32 4 4 C-0.02992782 3.44687265 -4.02022924 2.8441938 -8 2 C-8 1.67 -8 1.34 -8 1 C-2.25 0 -2.25 0 0 0 Z " fill="#BCD7E4" transform="translate(111,78)"/>
</svg>
